# xmcd
#
# Track frame offsets:
#   150
#   16071
#   28642
#   42931
#   55704
#   67052
#   83956
#   95626
#   108173
#   119149
#
# Disc length: 1750 seconds
#
# Revision: 0
# Processed by: cddbd v1.4PL0 Copyright (c) Steve Scherf et al.
# Submitted via: uFREEDB 1.6.0
#
DISCID=8106d40a
DTITLE=Martin, Dean - My Woman, My Woman, My Wife
DYEAR=1970
DGENRE=Vocal
TTITLE0=My Woman, My Woman, My Wife
TTITLE1=Once A Day
TTITLE2=Here We Go Again
TTITLE3=Make The World Go Away
TTITLE4=Tips Of My Fingers
TTITLE5=Detroit City
TTITLE6=Together Again
TTITLE7=Heart Over Mind
TTITLE8=Turn The World Around
TTITLE9=It Keeps Right On A-Hurtin'
EXTD=
EXTT0=
EXTT1=
EXTT2=
EXTT3=
EXTT4=
EXTT5=
EXTT6=
EXTT7=
EXTT8=
EXTT9=
PLAYORDER=
